<svg height="612.05507" viewBox="0 0 916.77499 612.05507" width="916.77499" xmlns="http://www.w3.org/2000/svg"><path d="m893.363 591.2-9.054 3.857-19.191-33.085 13.363-5.694z" fill="#ffb6b6"/><path d="m818.545 599.767-9.841-.001-4.682-37.96h14.525z" fill="#ffb6b6"/><path d="m960.504 754.0061-30.264-.0011v-.38273a11.78023 11.78023 0 0 1 11.77957-11.77939h.00073l5.52809-4.1939 10.31421 4.19454 2.64184.00009z" fill="#2f2e41" transform="translate(-141.6125 -143.97246)"/><path d="m1040.4808 741.744-27.84129 11.86459-.15006-.3521a11.7802 11.7802 0 0 1 6.21806-15.45469l.00067-.00029 3.44118-6.02552 11.133-.18521 2.43036-1.03571z" fill="#2f2e41" transform="translate(-141.6125 -143.97246)"/><path d="m950.5036 519.07544-14.95707 91.07525 4.07054 13.57179-5.34138 9.612 7.84393 84.41455-3.184 7.00992 8.89614 5.4865h18.10237l.96071-76.42116 4.47161-11.22028v-6.18371l9.10287-46.59984 1.676 53.30441 2.64787 11.23785-2.22418 8.00141 2.90619 5.60568 24.906 53.47959h20.29867l-1.56994-12.09425c3.63681-1.8413-5.46025-7.22284-6.3344-11.2044l2.98891-6.72505-2.98891-12.70289-2.74056-24.82175 2.89017-52.39458-1.35994-70.55578c-6.8153-9.13739-14.37585-16.18448-23.74572-18.158z" fill="#2f2e41" transform="translate(-141.6125 -143.97246)"/><circle cx="845.31562" cy="234.64914" fill="#ffb6b6" r="20.51334"/><path d="m902.352 540.59378a8.07233 8.07233 0 0 1 7.54338-9.81388l8.26322-27.47058 9.55326 11.44352-9.31155 24.3321a8.11612 8.11612 0 0 1 -16.04831 1.50884z" fill="#ffb6b6" transform="translate(-141.6125 -143.97246)"/><path d="m955.95617 427.68036-3.70326-6.76608-4.77238 1.59305s-5.26816 3.39945-12.64455 16.2327c-3.41169 5.93558-10.78677 43.9972-10.78677 43.9972l-17.23893 45.64677 17.57476 2.97122 14.66417-37.618 17-36z" fill="#ad40af" transform="translate(-141.6125 -143.97246)"/><path d="m986.16786 518.788c14.44336 0 29.01612 2.84375 34.98389 13.00976-.15576-2.21045-.54687-6.04345-.95312-9.56006l-1.49317-9.44873 1.5127-8.66357 2-2-3.58155-3.58154 2.44336-18.08448 8.06495-42.60254a15.471 15.471 0 0 0 -8.52492-16.82274l-7.74853-3.72607-12.561-11.65088-22.72168-.16992-7.41259 9.6372-19.51368 6.62793 3.27539 67.76074-2.147 5.00977c.48145.44189 1.49658 1.38623 2.04639 1.99463.77783.86035-.21289 5.29053-.87256 7.85449l-.90723 6.83057 2.855 2.03955-3.71142 4.38428-.7417 5.56494c3.68504-.87159 19.61668-4.40333 35.70847-4.40333z" fill="#ad40af" transform="translate(-141.6125 -143.97246)"/><path d="m992.17585 398.1305q.13144-.28942.26217-.58085c-.03359.00108-.06683.00591-.10042.00679z" fill="#2f2e41" transform="translate(-141.6125 -143.97246)"/><path d="m1008.01193 359.0411a5.70955 5.70955 0 0 0 -3.57661-1.54637c-1.32646.04275-2.67161 1.2408-2.39679 2.53922a21.08 21.08 0 0 0 -25.36853-9.51252c-3.29686 1.16315-6.52994 3.49015-7.28727 6.90315a6.21715 6.21715 0 0 1 -.78319 2.54824 2.909 2.909 0 0 1 -3.096.78436l-.03254-.00959a.96922.96922 0 0 0 -1.17112 1.3682l.93283 1.73974a7.47535 7.47535 0 0 1 -3.56145-.07574.9684.9684 0 0 0 -1.02834 1.507 16.8794 16.8794 0 0 0 13.45889 6.91806c3.72717-.02273 7.49273-1.30728 11.12011-.45017a9.65935 9.65935 0 0 1 6.4968 13.55975c1.11435-1.21886 3.2685-.93029 4.4084.26478a6.04618 6.04618 0 0 1 1.32008 4.62629 21.46516 21.46516 0 0 1 -2.20369 7.20511 21.53985 21.53985 0 0 0 12.76843-38.3695z" fill="#2f2e41" transform="translate(-141.6125 -143.97246)"/><circle cx="203.43671" cy="87.48107" fill="#ad40af" r="51"/><g transform="translate(-141.6125 -143.97246)"><path d="m201.70872 383.16319c-25.59007-56.60345-24.64653-128.351 15.06833-176.11541a286.20737 286.20737 0 0 0 102.43871 167.68662c20.44681 16.14488 44.86966 31.97288 50.45524 57.41965 3.4758 15.83352-1.45076 32.58093-9.96763 46.3732-8.51764 13.79273-20.39 25.13853-32.12733 36.32l-1.31689 3.82648c-51.07279-35.36055-98.96037-78.90709-124.55043-135.51054z" fill="#f2f2f2"/><path d="m217.88249 207.73841c-9.1399 50.04833-2.35 103.34069 19.86564 149.19436 4.803 9.91346 10.53795 19.55186 18.21628 27.525 7.68176 7.97672 16.86644 12.99808 27.43221 16.083 9.65924 2.82022 19.86619 4.58642 28.67168 9.70555 9.28145 5.39582 15.04145 14.44962 17.28531 24.83225 2.74543 12.70342.76259 25.63573-1.616 38.21506-2.64093 13.96694-5.60532 28.43238-1.77837 42.47286.46369 1.7012-2.20311 2.32122-2.6661.62259-6.65825-24.428 6.2871-48.52061 4.47761-73.08032-.84434-11.46-5.14741-22.735-14.97357-29.37486-8.59254-5.80626-19.11648-7.63659-28.92135-10.40759-10.29529-2.9096-19.54116-7.354-27.40871-14.7263-8.04808-7.54142-14.172-16.97593-19.20732-26.72311-11.35593-21.98225-18.84186-46.20149-22.80245-70.586a248.96837 248.96837 0 0 1 .80878-84.56049c.31573-1.72884 2.93-.9095 2.61633.808z" fill="#fff"/><path d="m229.74072 342.40916a36.70233 36.70233 0 0 1 -43.88272-18.24816c-.79628-1.57129 1.608-2.88248 2.40535-1.3091a33.98555 33.98555 0 0 0 40.85481 16.89115c1.67508-.54564 2.28808 2.12358.62258 2.6661z" fill="#fff"/><path d="m278.31066 399.75584a70.74075 70.74075 0 0 0 5.72232-51.23525c-.45765-1.70278 2.209-2.32331 2.6661-.62258a73.58106 73.58106 0 0 1 -6.063 53.30281c-.82619 1.55987-3.14715.10642-2.32545-1.445z" fill="#fff"/><path d="m213.42259 264.35351a20.77528 20.77528 0 0 0 16.28079-11.11532c.806-1.56958 3.12622-.11438 2.32545 1.445a23.2804 23.2804 0 0 1 -17.98365 12.33644 1.4149 1.4149 0 0 1 -1.64434-1.02176 1.37583 1.37583 0 0 1 1.02175-1.64434z" fill="#fff"/><path d="m427.09946 207.60221c-.47542.99438-.95083 1.98876-1.41515 3.00347a273.59767 273.59767 0 0 0 -15.61787 41.543c-.33236 1.09655-.65266 2.21285-.95282 3.31667a288.43464 288.43464 0 0 0 -8.76178 105.83083 280.1062 280.1062 0 0 0 7.59847 41.87546c4.96053 18.98294 11.8494 39.17059 10.29493 58.12566a48.05372 48.05372 0 0 1 -.78587 5.89521l-86.42993 52.79093c-.25663.0214-.50224.063-.75983.085l-3.3545 2.26557c-.23473-.696-.46321-1.42288-.69794-2.11886-.13783-.40316-.25641-.81808-.39425-1.22123-.08579-.2725-.1707-.54571-.26369-.7867-.0289-.0906-.05683-.18178-.07374-.25276-.093-.241-.15379-.47472-.23472-.696q-1.9326-6.0894-3.78631-12.22715c-.01206-.01974-.01206-.01974-.00486-.05124-9.3367-31.20179-16.15057-63.45718-17.85208-95.72136-.05087-.97073-.11476-1.96061-.12615-2.95545a267.28458 267.28458 0 0 1 1.50657-43.592 236.2913 236.2913 0 0 1 4.04637-23.56365 196.49219 196.49219 0 0 1 22.76342-57.06294c21.00231-35.30114 53.06076-63.49243 92.29634-73.72975 1.00393-.26116 1.98943-.51128 3.00539-.75271z" fill="#f2f2f2"/><path d="m427.57517 208.81786c-37.43025 34.45793-64.09457 81.09689-73.96371 131.08383-2.13368 10.80705-3.3576 21.95564-2.02727 32.94464 1.33092 10.99391 5.64116 20.533 12.22 29.35744 6.01441 8.06732 13.10071 15.62282 17.04933 25.01167 4.16206 9.89634 3.31008 20.59321-1.14937 30.23411-5.45627 11.79591-14.82561 20.92783-24.29838 29.53966-10.5177 9.5618-21.59379 19.32688-26.99152 32.84151-.654 1.63748-3.15659.52693-2.50357-1.10808 9.39112-23.51314 34.23265-34.95573 47.57452-55.65472 6.22556-9.65853 9.57812-21.25173 5.73014-32.4693-3.3649-9.80928-10.66569-17.60683-16.826-25.72253-6.46843-8.52162-11.17488-17.63691-13.01807-28.26007-1.88548-10.86689-1.09485-22.08682.75319-32.901 4.16776-24.38865 12.77232-48.23341 24.29118-70.08764a248.96829 248.96829 0 0 1 51.557-67.02988c1.293-1.19029 2.887 1.03788 1.60249 2.22039z" fill="#fff"/><path d="m355.96222 323.48439a36.70233 36.70233 0 0 1 -24.05122-40.99057c.31024-1.734 3.01936-1.33337 2.70871.40294a33.98555 33.98555 0 0 0 22.45063 38.08406c1.666.57285.54836 3.07314-1.10807 2.50357z" fill="#fff"/><path d="m360.21593 398.515a70.74074 70.74074 0 0 0 35.41607-37.46329c.65978-1.63511 3.16256-.52506 2.50357 1.10808a73.58106 73.58106 0 0 1 -36.93291 38.909c-1.59882.74805-2.5769-1.80983-.98677-2.55382z" fill="#fff"/><path d="m389.928 251.33668a20.77527 20.77527 0 0 0 19.69148.92719c1.58855-.76794 2.565 1.79088.98677 2.55382a23.28041 23.28041 0 0 1 -21.78633-.97744 1.41491 1.41491 0 0 1 -.69775-1.80582 1.37583 1.37583 0 0 1 1.80583-.69775z" fill="#fff"/><path d="m631.70872 321.16319c-25.59007-56.60345-24.64653-128.351 15.06833-176.11541a286.20737 286.20737 0 0 0 102.43871 167.68662c20.44681 16.14488 44.86966 31.97288 50.45524 57.41965 3.4758 15.83352-1.45076 32.58093-9.96763 46.3732-8.51764 13.79273-20.39 25.13853-32.12733 36.32l-1.31689 3.82648c-51.07279-35.36055-98.96037-78.90709-124.55043-135.51054z" fill="#f2f2f2"/><path d="m647.88249 145.73841c-9.1399 50.04833-2.35 103.34069 19.86564 149.19436 4.803 9.91346 10.538 19.55186 18.21628 27.525 7.68176 7.97672 16.86644 12.99808 27.43221 16.083 9.65924 2.82022 19.86619 4.58642 28.67168 9.70555 9.28145 5.39582 15.04145 14.44962 17.28531 24.83225 2.74543 12.70342.76259 25.63573-1.616 38.21506-2.64093 13.96694-5.60532 28.43238-1.77837 42.47286.46369 1.7012-2.20311 2.32122-2.6661.62259-6.65825-24.428 6.2871-48.52061 4.47761-73.08032-.84434-11.46-5.14741-22.735-14.97357-29.37486-8.59254-5.80626-19.11648-7.63659-28.92135-10.40759-10.29529-2.9096-19.54116-7.354-27.40871-14.7263-8.04808-7.54142-14.172-16.97593-19.20732-26.72311-11.35593-21.98225-18.84186-46.20149-22.80245-70.586a248.96837 248.96837 0 0 1 .80878-84.56049c.31573-1.72884 2.93-.9095 2.61633.808z" fill="#fff"/><path d="m659.74072 280.40916a36.70233 36.70233 0 0 1 -43.88272-18.24816c-.79628-1.57129 1.608-2.88248 2.40535-1.3091a33.98555 33.98555 0 0 0 40.85481 16.89115c1.67508-.54564 2.28808 2.12358.62258 2.6661z" fill="#fff"/><path d="m708.31066 337.75584a70.74075 70.74075 0 0 0 5.72232-51.23525c-.45765-1.70278 2.209-2.32331 2.6661-.62258a73.58106 73.58106 0 0 1 -6.063 53.30281c-.82619 1.55987-3.14715.10642-2.32545-1.445z" fill="#fff"/><path d="m643.42259 202.35351a20.77528 20.77528 0 0 0 16.28079-11.11532c.806-1.56958 3.12622-.11438 2.32545 1.445a23.2804 23.2804 0 0 1 -17.98365 12.33644 1.4149 1.4149 0 0 1 -1.64434-1.02176 1.37583 1.37583 0 0 1 1.02175-1.64434z" fill="#fff"/><path d="m857.09946 145.60221c-.47542.99438-.95083 1.98876-1.41515 3.00347a273.59767 273.59767 0 0 0 -15.61787 41.543c-.33236 1.09655-.65266 2.21285-.95282 3.31667a288.43464 288.43464 0 0 0 -8.76178 105.83083 280.1062 280.1062 0 0 0 7.59847 41.87546c4.96053 18.98294 11.8494 39.17059 10.29493 58.12566a48.05372 48.05372 0 0 1 -.78587 5.89521l-86.42993 52.79093c-.25663.0214-.50224.063-.75983.085l-3.3545 2.26557c-.23473-.696-.46321-1.42288-.69794-2.11886-.13783-.40316-.25641-.81808-.39425-1.22123-.08579-.2725-.1707-.54571-.26369-.7867-.0289-.0906-.05683-.18178-.07374-.25276-.093-.241-.15379-.47472-.23472-.696q-1.9326-6.0894-3.78631-12.22715c-.01206-.01974-.01206-.01974-.00486-.05124-9.3367-31.20179-16.15057-63.45718-17.85208-95.72136-.05087-.97073-.11476-1.96061-.12615-2.95545a267.28458 267.28458 0 0 1 1.50657-43.592 236.2913 236.2913 0 0 1 4.04637-23.56365 196.49219 196.49219 0 0 1 22.76342-57.06294c21.00231-35.30114 53.06076-63.49243 92.29634-73.72975 1.00393-.26116 1.98943-.51128 3.00539-.75271z" fill="#f0f0f0"/><path d="m857.57517 146.81786c-37.43025 34.45793-64.09457 81.09689-73.96371 131.08383-2.13368 10.80705-3.3576 21.95564-2.02727 32.94464 1.33092 10.99391 5.64116 20.533 12.22 29.35744 6.01441 8.06732 13.10071 15.62282 17.04933 25.01167 4.16206 9.89634 3.31008 20.59321-1.14937 30.23411-5.45627 11.79591-14.82561 20.92783-24.29838 29.53966-10.5177 9.5618-21.59379 19.32688-26.99152 32.84151-.654 1.63748-3.15659.52693-2.50357-1.10808 9.39112-23.51314 34.23265-34.95573 47.57452-55.65472 6.22556-9.65853 9.57812-21.25173 5.73014-32.4693-3.3649-9.80928-10.66569-17.60683-16.826-25.72253-6.46843-8.52162-11.17488-17.63691-13.01807-28.26007-1.88548-10.86689-1.09485-22.08682.75319-32.901 4.16776-24.38865 12.77232-48.23341 24.29118-70.08764a248.96829 248.96829 0 0 1 51.557-67.02988c1.293-1.19029 2.887 1.03788 1.60249 2.22039z" fill="#fff"/><path d="m785.96222 261.48439a36.70233 36.70233 0 0 1 -24.05122-40.99057c.31024-1.734 3.01936-1.33337 2.70871.40294a33.98555 33.98555 0 0 0 22.45063 38.08406c1.666.57285.54836 3.07314-1.10807 2.50357z" fill="#fff"/><path d="m790.21593 336.515a70.74074 70.74074 0 0 0 35.41607-37.46329c.65978-1.63511 3.16256-.52506 2.50357 1.10808a73.58106 73.58106 0 0 1 -36.93291 38.909c-1.59882.74805-2.5769-1.80983-.98677-2.55382z" fill="#fff"/><path d="m819.928 189.33668a20.77527 20.77527 0 0 0 19.69148.92719c1.58855-.76794 2.565 1.79088.98677 2.55382a23.28041 23.28041 0 0 1 -21.78633-.97744 1.41491 1.41491 0 0 1 -.69775-1.80582 1.37583 1.37583 0 0 1 1.80583-.69775z" fill="#fff"/><path d="m305.54921 740.95353 9.44673 7.31619 36.72906 6.37279 40.82421-101.48031s25-78.20867 95-62.20867l225-4s69.08338-7.08025 80.5 25.5c2.16244 6.17108 60.5 142.5 60.5 142.5l40.90158-5.77292-4.90158-116.22708-97.14567-225.5-168.85433-10.5433-174 12.0433z" fill="#3f3d56"/></g><circle cx="350.93671" cy="388.98107" fill="#2f2e41" r="65"/><circle cx="568.93671" cy="388.98107" fill="#2f2e41" r="65"/><path d="m416.54921 319.95353 26.7634-5.248s201.50432-28.752 328.87046 5.248l-9.63386 27-337-2z" fill="#e6e6e6" transform="translate(-141.6125 -143.97246)"/><path d="m688.23818 459.45353h-171.00879c-20.76367 0-38.709-14.37744-42.66992-34.18652l-18.71485-93.604a14.99081 14.99081 0 0 1 2.59033-11.82422 15.93792 15.93792 0 0 1 10.94874-6.43213c90.19238-11.19531 179.50195-11.21436 265.45019-.05811a15.69914 15.69914 0 0 1 10.79 6.35157 15.01285 15.01285 0 0 1 2.67139 11.67236l-17.27588 93.31689c-3.72897 20.14356-21.72115 34.76416-42.78121 34.76416z" fill="#ad40af" transform="translate(-141.6125 -143.97246)"/><path d="m340.4789 335.19279.74463-13.395a12.9355 12.9355 0 0 1 6.14892-10.30615c10.79737-6.624 39.92334-21.208 77.09229-13.563a12.97676 12.97676 0 0 1 10.2124 10.84619l.99512 6.96973z" fill="#3f3d56" transform="translate(-141.6125 -143.97246)"/><path d="m864.61953 335.19279-95.19336-19.44824 1.59912-11.19727a6.69181 6.69181 0 0 1 5.01071-5.56928c42.86523-10.75733 75.67578 8.34619 84.71142 14.45752a6.76148 6.76148 0 0 1 2.95166 5.19726z" fill="#3f3d56" transform="translate(-141.6125 -143.97246)"/><path d="m310.2538 749.68889a11.99528 11.99528 0 0 1 -6.4917-1.82618c-25.48877-14.88379-41.37939-42.15918-47.19433-81.04589-4.80323-32.1211-2.79737-72.43848 5.96142-119.833 15.52881-84.02682 48.07569-168.01613 61.34815-200.22609a29.37562 29.37562 0 0 1 20.0708-17.28418c27.36181-6.73 75.12695-18.02 87.60107-18.02 17.09473 0 26.34424 16.09229 26.436 16.25489l.05127.13281 15.01269 65.10059v.93945c8.28223 28.02246 2.12842 48.26513-4.49707 60.313-7.19092 13.07714-16.4956 19.606-16.58838 19.67041-14.61084 11.123-38.415 46.95605-62.10547 93.50293-24.61865 48.37207-42.86865 96.10156-48.81787 127.67871-7.28173 38.64941-17.95605 50.48144-25.62841 53.60058a13.602 13.602 0 0 1 -5.15817 1.04197z" fill="#e6e6e6" transform="translate(-141.6125 -143.97246)"/><path d="m682.601 451.45353h-161.58011a41.1678 41.1678 0 0 1 -40.34472-33.2622l-17.68311-91.03614a15.01974 15.01974 0 0 1 12.81445-17.76855c85.22412-10.88818 169.61377-10.90674 250.8252-.05664a15.00551 15.00551 0 0 1 12.74121 17.543l-16.32324 90.7568a41.06489 41.06489 0 0 1 -40.44968 33.82373z" fill="#e6e6e6" transform="translate(-141.6125 -143.97246)"/><path d="m894.848 749.68986a13.60892 13.60892 0 0 1 -5.16162-1.043c-7.67236-3.11914-18.34668-14.95117-25.62842-53.60058-5.94922-31.57715-24.19922-79.30664-48.81787-127.67871-23.69043-46.54688-47.49463-82.37989-62.12353-93.51612-.07471-.05127-9.3794-6.58008-16.57032-19.65722-6.62549-12.04786-12.77929-32.29053-4.49707-60.313l.0127-1.05176 15.01613-65.05855.03516-.0625c.09179-.1626 9.34131-16.25489 26.436-16.25489 12.47412 0 60.23926 11.29 87.60108 18.02a29.37993 29.37993 0 0 1 20.0708 17.28418c13.27246 32.21 45.81933 116.19922 61.34814 200.22608 8.75879 47.39453 10.76465 87.71191 5.96143 119.833-5.81494 38.88671-21.70557 66.1621-47.22949 81.06835a11.948 11.948 0 0 1 -6.45312 1.80472z" fill="#e6e6e6" transform="translate(-141.6125 -143.97246)"/><circle cx="350.93671" cy="377.98107" fill="#3f3d56" r="39"/><circle cx="350.93671" cy="377.98107" fill="#2f2e41" r="26"/><circle cx="568.93671" cy="377.98107" fill="#3f3d56" r="39"/><circle cx="568.93671" cy="377.98107" fill="#2f2e41" r="26"/><circle cx="435.93671" cy="327.98107" fill="#2f2e41" r="3"/><circle cx="448.93671" cy="327.98107" fill="#2f2e41" r="3"/><circle cx="442.93671" cy="338.98107" fill="#2f2e41" r="3"/><circle cx="454.93671" cy="338.98107" fill="#2f2e41" r="3"/><circle cx="466.93671" cy="338.98107" fill="#2f2e41" r="3"/><circle cx="478.93671" cy="338.98107" fill="#2f2e41" r="3"/><circle cx="461.93671" cy="327.98107" fill="#2f2e41" r="3"/><circle cx="474.93671" cy="327.98107" fill="#2f2e41" r="3"/><circle cx="487.93671" cy="327.98107" fill="#2f2e41" r="3"/><path d="m615.54921 564.45353h-26a4.5 4.5 0 1 1 0-9h26a4.5 4.5 0 0 1 0 9z" fill="#2f2e41" transform="translate(-141.6125 -143.97246)"/><path d="m443.393 368.83976a7.46431 7.46431 0 0 1 -7.24414-5.74951l-3.9873-16.92822a7.45695 7.45695 0 0 1 14.5166-3.41943l3.9873 16.92822a7.46695 7.46695 0 0 1 -7.27246 9.16894z" fill="#3f3d56" transform="translate(-141.6125 -143.97246)"/><path d="m762.70546 367.83976a7.467 7.467 0 0 1 -7.27246-9.16894l3.98731-16.92822a7.45695 7.45695 0 0 1 14.5166 3.41943l-3.98731 16.92822a7.46431 7.46431 0 0 1 -7.24414 5.74951z" fill="#3f3d56" transform="translate(-141.6125 -143.97246)"/><path d="m388.37783 418.80705a11.94249 11.94249 0 0 1 -6.85791-2.16357l-8.36963-5.85889a11.96821 11.96821 0 0 1 -5.10108-9.79736v-17.94336a13.60583 13.60583 0 0 1 13.59033-13.59034h12.81934a13.60583 13.60583 0 0 1 13.59033 13.59034v18.11962a12.00227 12.00227 0 0 1 -4.86523 9.627l-7.7124 5.6831a11.94157 11.94157 0 0 1 -7.09375 2.33346z" fill="#3f3d56" transform="translate(-141.6125 -143.97246)"/><path d="m394.45888 484.45353h-12.81934a13.60583 13.60583 0 0 1 -13.59033-13.59033v-17.94336a11.96821 11.96821 0 0 1 5.10108-9.79736l8.36963-5.85889a11.95 11.95 0 0 1 13.95166.16992l7.7124 5.68311a12.00226 12.00226 0 0 1 4.86523 9.62695v18.11963a13.60583 13.60583 0 0 1 -13.59033 13.59033z" fill="#3f3d56" transform="translate(-141.6125 -143.97246)"/><path d="m434.45888 446.95353h-17.94336a11.9682 11.9682 0 0 1 -9.79736-5.10107l-5.85889-8.36963a11.94918 11.94918 0 0 1 .16992-13.95166l5.68311-7.7124a12.00224 12.00224 0 0 1 9.62695-4.86524h18.11963a13.60583 13.60583 0 0 1 13.59033 13.59034v12.81933a13.60583 13.60583 0 0 1 -13.59033 13.59033z" fill="#3f3d56" transform="translate(-141.6125 -143.97246)"/><path d="m358.5829 446.95353h-17.94336a13.60583 13.60583 0 0 1 -13.59033-13.59033v-12.81933a13.60583 13.60583 0 0 1 13.59033-13.59034h18.11963a12.00226 12.00226 0 0 1 9.627 4.86524l5.6831 7.7124a11.94918 11.94918 0 0 1 .16992 13.95166l-5.85888 8.36963a11.9682 11.9682 0 0 1 -9.79741 5.10107z" fill="#3f3d56" transform="translate(-141.6125 -143.97246)"/><circle cx="675.93671" cy="231.98107" fill="#3f3d56" r="23"/><circle cx="726.93671" cy="284.98107" fill="#3f3d56" r="23"/><circle cx="675.93671" cy="334.98107" fill="#3f3d56" r="23"/><circle cx="624.93671" cy="283.98107" fill="#3f3d56" r="23"/><path d="m868.54921 443.95353a15 15 0 1 1 15-15 15.017 15.017 0 0 1 -15 15zm0-28a13 13 0 1 0 13 13 13.01443 13.01443 0 0 0 -13-13z" fill="#e6e6e6" transform="translate(-141.6125 -143.97246)"/><path d="m833.62148 387.1132-30.14453-.42627 15.44189-25.89306zm-26.65235-2.37744 23.2168.32861-11.32373-20.2705z" fill="#e6e6e6" transform="translate(-141.6125 -143.97246)"/><path d="m778.54921 439.95353h-24v-24h24zm-22-2h20v-20h-20z" fill="#e6e6e6" transform="translate(-141.6125 -143.97246)"/><path d="m688.348 345.307-10.995-10.974 9.696-9.678-1.414-1.416-9.698 9.68-9.699-9.68-1.413 1.416 9.696 9.678-10.995 10.974 1.413 1.416 10.998-10.977 10.998 10.977z" fill="#e6e6e6"/><path d="m388.34449 217.81212a15 15 0 1 1 15-15 15.017 15.017 0 0 1 -15 15zm0-28a13 13 0 1 0 13 13 13.01443 13.01443 0 0 0 -13-13z" fill="#e6e6e6" transform="translate(-141.6125 -143.97246)"/><path d="m354.41675 192.97179-30.14453-.42627 15.4419-25.89306zm-26.65234-2.37744 23.2168.32861-11.32373-20.2705z" fill="#e6e6e6" transform="translate(-141.6125 -143.97246)"/><path d="m310.04921 229.45353h-24v-24h24zm-22-2h20v-20h-20z" fill="#e6e6e6" transform="translate(-141.6125 -143.97246)"/><path d="m190.143 130.165-10.995-10.974 9.696-9.677-1.413-1.416-9.699 9.68-9.699-9.68-1.413 1.416 9.696 9.677-10.995 10.974 1.413 1.416 10.998-10.977 10.998 10.977z" fill="#e6e6e6"/><path d="m867.437 344.481-38.815 29.213 43.815-19.213z" opacity=".2"/><path d="m149.437 380.481-49 2-6-33 42-13z" fill="#a0616a"/><path d="m273.03419 443.5775-10.92912-11.12829 13.40058-20.48994 22.93595-38.17886a8.92578 8.92578 0 1 1 10.90394 4.78047l-18.93168 40.75925z" fill="#a0616a" transform="translate(-141.6125 -143.97246)"/><path d="m260.92741 468.9824a12.31685 12.31685 0 0 1 -12.152 5.50228 11.51513 11.51513 0 0 1 -9.67515-8.11036 10.97913 10.97913 0 0 1 1.20968-9.16639c7.31128-12.32521 20.79575-28.60229 20.93094-28.76489l.21472-.25885 22.74329 4.92744z" fill="#ad40af" transform="translate(-141.6125 -143.97246)"/><path d="m137.758 597.772 13.589-.001 6.464-52.415-20.056.001z" fill="#a0616a"/><path d="m275.90371 737.30783 26.76189-.00109h.00108a17.05569 17.05569 0 0 1 17.05477 17.05451v.55421l-43.81693.00162z" fill="#2f2e41" transform="translate(-141.6125 -143.97246)"/><path d="m31.948 591.89 13.436 2.03 14.228-50.859-17.614-2.998z" fill="#a0616a"/><path d="m170.79627 730.95705 26.46134 3.99952.00107.00017a17.0557 17.0557 0 0 1 14.31369 19.41236l-.08285.548-43.32483-6.54852z" fill="#2f2e41" transform="translate(-141.6125 -143.97246)"/><path d="m240.04921 516.45353 47-8 14.54249 29.97607.55422 195.63724-25.79512-.16146-10.78295-158.3435-68.72243 146.31227-27.71066-3.32527 60.40924-156.84232s-3.32527-27.71066 7.20478-41.566z" fill="#2f2e41" transform="translate(-141.6125 -143.97246)"/><path d="m222.60086 457.39464a11.74351 11.74351 0 0 1 3.239-12.39511l6.67951-6.07145 18.831-3.17265 11.77432-2.14 18.9246 54.8381-45.96314 21.11725c-4.03376-.87091-5.645-3.0774-3.29791-7.46477z" fill="#ad40af" transform="translate(-141.6125 -143.97246)"/><path d="m264.78366 475.89835 13.14833-8.39082 17.27483 17.34917 32.60874 30.3373a8.92578 8.92578 0 1 1 -6.93259 9.67925l-35.96162-26.95341z" fill="#a0616a" transform="translate(-141.6125 -143.97246)"/><path d="m242.43229 458.7974a12.31545 12.31545 0 0 1 -2.86915-13.0264 11.52135 11.52135 0 0 1 9.93625-7.78816 10.97935 10.97935 0 0 1 8.71782 3.07955c10.546 9.70244 23.68193 26.26284 23.81312 26.42841l.20858.26369-9.52538 21.23185z" fill="#ad40af" transform="translate(-141.6125 -143.97246)"/><circle cx="101.4736" cy="264.44041" fill="#a0616a" r="20.67092"/><path d="m226.35063 437.861a79.19617 79.19617 0 0 1 -9.58987-.58459l-.43626-.05315-3.32958-18.07626a30.49642 30.49642 0 0 1 22.7895-35.16087 2.83362 2.83362 0 0 1 2.82194.87368l.7941-.27682a24.51831 24.51831 0 0 1 31.2245 15.07853l.19681.56474-5.2993 1.84781a11.76592 11.76592 0 0 0 -6.212 17.16812l5.41815 9.02-.57686.28909a83.7489 83.7489 0 0 1 -37.80113 9.30972z" fill="#2f2e41" transform="translate(-141.6125 -143.97246)"/><path d="m936.50927 524.36186a8.07235 8.07235 0 0 1 10.904-5.85811l18.8001-21.66724 4.02128 14.35437-18.46944 18.37488a8.11612 8.11612 0 0 1 -15.256-5.2039z" fill="#ffb6b6" transform="translate(-141.6125 -143.97246)"/><path d="m1020.40046 429.10263 7.702-.4165 1.15993 4.89571s-.11434 6.26871-7.13681 19.299-61.43373 71.045-61.43373 71.045l-11.78366-13.37332 29.12557-30.00031 17.63824-31.44348z" fill="#ad40af" transform="translate(-141.6125 -143.97246)"/><path d="m142.85951 756.02754h914.281a1.247 1.247 0 0 0 0-2.494h-914.281a1.247 1.247 0 1 0 0 2.494z" fill="#ccc" transform="translate(-141.6125 -143.97246)"/></svg>